<svg width="200" height="200" viewBox="0 0 200 200" xmlns="http://www.w3.org/2000/svg">
  <circle cx="100" cy="100" r="95" fill="none" stroke="#2c3e50" stroke-width="8" stroke-dasharray="440 100" />
  
  <path d="M160 70 L185 95 L135 95 Z" fill="#e67e22" transform="rotate(15 160 82)" />
  
  <path d="M100 45 
           C 115 45, 125 55, 125 70 
           L 125 85 
           L 155 105 
           L 145 130 
           L 125 120 
           L 130 170 
           L 70 170 
           L 75 120 
           L 55 130 
           L 45 105 
           L 75 85 
           L 75 70 
           C 75 55, 85 45, 100 45 Z" 
        fill="#2c3e50" />
  
  <path d="M100 85 L103 97 L115 100 L103 103 L100 115 L97 103 L85 100 L97 97 Z" fill="white" />
</svg>
